<?xml version="1.0" standalone="no"?>
<!DOCTYPE svg PUBLIC "-//W3C//DTD SVG 20010904//EN"
 "http://www.w3.org/TR/2001/REC-SVG-20010904/DTD/svg10.dtd">
<svg version="1.0" xmlns="http://www.w3.org/2000/svg"
 width="425.000000pt" height="425.000000pt" viewBox="0 0 425.000000 425.000000"
 preserveAspectRatio="xMidYMid meet">
<metadata>
Created by potrace 1.14, written by Peter Selinger 2001-2017
</metadata>
<g transform="translate(0.000000,425.000000) scale(0.100000,-0.100000)"
fill="#000000" stroke="none">
<path d="M1870 4163 c-450 -58 -862 -262 -1185 -588 -527 -531 -716 -1289
-503 -2015 31 -103 40 -129 80 -220 60 -137 208 -390 262 -446 6 -6 31 -36 55
-65 152 -186 408 -386 648 -507 133 -66 355 -143 488 -167 215 -39 433 -51
605 -34 654 68 1228 434 1559 997 131 223 208 437 257 717 25 142 25 469 0
620 -138 839 -750 1492 -1570 1676 -214 48 -479 60 -696 32z m520 -147 c333
-61 538 -140 780 -301 52 -35 105 -71 117 -82 11 -10 40 -34 64 -53 119 -97
257 -254 352 -401 209 -322 306 -652 305 -1039 0 -229 -28 -400 -100 -610
-209 -608 -722 -1072 -1350 -1220 -701 -165 -1439 86 -1890 645 -272 336 -414
723 -423 1150 -6 310 58 603 191 872 57 116 174 300 234 368 98 110 122 135
210 213 251 225 618 401 930 448 25 3 68 10 95 14 56 9 431 5 485 -4z"/>
<path d="M2598 2852 c-164 -1 -298 -6 -299 -10 0 -4 -2 -15 -4 -24 -2 -10 -3
-18 -2 -18 1 -1 36 -3 77 -6 41 -3 86 -13 99 -21 22 -14 23 -19 17 -87 -3 -39
-13 -110 -21 -156 -9 -47 -24 -134 -35 -195 -10 -60 -28 -162 -39 -225 -11
-63 -36 -209 -56 -325 -20 -115 -42 -235 -50 -265 -15 -56 -42 -89 -76 -91
-10 -1 -25 -2 -31 -3 -7 0 -14 -14 -16 -31 l-3 -30 241 -2 240 -2 0 30 c0 25
-4 29 -27 30 -66 2 -108 10 -131 25 -22 15 -24 20 -18 72 5 51 17 121 31 199
3 16 13 66 21 113 8 47 17 96 20 110 3 14 7 36 10 50 3 14 19 102 36 195 17
94 32 179 34 190 2 11 11 58 19 105 9 47 17 92 18 100 2 8 10 50 17 93 16 94
21 98 140 103 177 6 278 -44 315 -156 20 -64 13 -155 -18 -223 -62 -136 -187
-211 -362 -216 -106 -3 -113 -10 -70 -71 147 -210 376 -560 458 -702 l27 -46
140 1 c129 1 140 2 146 20 7 24 1 29 -58 51 -26 10 -59 32 -74 50 -15 17 -118
168 -229 334 -223 333 -214 308 -120 331 128 32 271 147 324 262 91 197 16
375 -178 425 -71 18 -132 20 -513 16z"/>
<path d="M1067 2829 c-9 -34 -1 -39 68 -39 72 0 109 -11 119 -35 3 -9 -10
-113 -29 -231 -19 -118 -51 -312 -70 -431 -33 -205 -42 -260 -51 -308 -2 -11
-10 -63 -19 -115 -30 -187 -53 -238 -109 -241 -99 -5 -116 -11 -116 -42 l0
-24 289 0 289 0 7 25 c3 13 5 26 3 28 -2 1 -44 5 -93 8 -76 4 -93 8 -107 27
-10 12 -18 29 -18 38 0 19 27 183 65 391 14 80 33 183 41 230 19 114 23 136
35 198 6 29 12 65 14 80 8 52 14 87 29 167 17 87 23 122 31 173 3 17 11 32 18
33 7 0 23 3 37 6 36 8 179 7 217 -1 104 -21 177 -89 201 -188 60 -240 -106
-513 -318 -524 -33 -1 -79 5 -115 16 -65 21 -78 17 -68 -18 14 -55 164 -88
285 -63 122 26 243 110 317 220 75 113 96 184 95 326 -1 144 -50 227 -166 281
l-63 29 -406 3 -406 3 -6 -22z"/>
</g>
</svg>
